<svg width="53" height="53" viewBox="0 0 53 53" fill="none" xmlns="http://www.w3.org/2000/svg">
<path d="M18.771 12.1459H12.146C10.3166 12.1459 8.8335 13.6289 8.8335 15.4584V37.5417C8.8335 39.3712 10.3166 40.8542 12.146 40.8542H18.771C20.6004 40.8542 22.0835 39.3712 22.0835 37.5417V15.4584C22.0835 13.6289 20.6004 12.1459 18.771 12.1459Z" fill="#351D16"/>
<path d="M40.854 12.1459H34.229C32.3996 12.1459 30.9165 13.6289 30.9165 15.4584V37.5417C30.9165 39.3712 32.3996 40.8542 34.229 40.8542H40.854C42.6834 40.8542 44.1665 39.3712 44.1665 37.5417V15.4584C44.1665 13.6289 42.6834 12.1459 40.854 12.1459Z" fill="#351D16"/>
</svg>
