<svg width="61" height="61" viewBox="0 0 61 61" fill="none" xmlns="http://www.w3.org/2000/svg">
<path d="M41.3021 24.9846L24.7813 15.4534C23.8144 14.8951 22.7175 14.6015 21.601 14.6021C20.4846 14.6026 19.388 14.8973 18.4217 15.4565C17.4553 16.0157 16.6534 16.8196 16.0966 17.7873C15.5398 18.755 15.2478 19.8523 15.25 20.9688V40.0313C15.2478 41.1477 15.5398 42.2451 16.0966 43.2128C16.6534 44.1805 17.4553 44.9844 18.4217 45.5436C19.388 46.1027 20.4846 46.3974 21.601 46.398C22.7175 46.3985 23.8144 46.1049 24.7813 45.5467L41.3021 36.0154C42.2675 35.4543 43.0687 34.6495 43.6256 33.6816C44.1825 32.7138 44.4755 31.6167 44.4755 30.5C44.4755 29.3834 44.1825 28.2863 43.6256 27.3184C43.0687 26.3505 42.2675 25.5458 41.3021 24.9846Z" fill="#351D16"/>
</svg>
