<svg width="52" height="52" viewBox="0 0 52 52" fill="none" xmlns="http://www.w3.org/2000/svg">
<path d="M25.9998 10.8334C22.5716 10.8334 19.2204 11.85 16.37 13.7546C13.5195 15.6592 11.2979 18.3663 9.98593 21.5335C8.67401 24.7008 8.33076 28.1859 8.99957 31.5483C9.66838 34.9106 11.3192 37.9991 13.7433 40.4232C16.1674 42.8473 19.2559 44.4982 22.6183 45.167C25.9806 45.8358 29.4658 45.4925 32.633 44.1806C35.8003 42.8687 38.5074 40.647 40.412 37.7966C42.3166 34.9461 43.3332 31.5949 43.3332 28.1667C43.3332 23.5696 41.507 19.1608 38.2564 15.9102C35.0057 12.6596 30.5969 10.8334 25.9998 10.8334ZM27.6248 24.31C27.6248 24.741 27.4536 25.1543 27.1489 25.4591C26.8441 25.7638 26.4308 25.935 25.9998 25.935C25.5689 25.935 25.1555 25.7638 24.8508 25.4591C24.5461 25.1543 24.3748 24.741 24.3748 24.31V16.6184C24.3748 16.1874 24.5461 15.7741 24.8508 15.4693C25.1555 15.1646 25.5689 14.9934 25.9998 14.9934C26.4308 14.9934 26.8441 15.1646 27.1489 15.4693C27.4536 15.7741 27.6248 16.1874 27.6248 16.6184V24.31Z" fill="#351D16"/>
<path d="M21.6665 8.125H30.3332C30.7641 8.125 31.1775 7.9538 31.4822 7.64905C31.787 7.3443 31.9582 6.93098 31.9582 6.5C31.9582 6.06902 31.787 5.6557 31.4822 5.35095C31.1775 5.0462 30.7641 4.875 30.3332 4.875H21.6665C21.2355 4.875 20.8222 5.0462 20.5175 5.35095C20.2127 5.6557 20.0415 6.06902 20.0415 6.5C20.0415 6.93098 20.2127 7.3443 20.5175 7.64905C20.8222 7.9538 21.2355 8.125 21.6665 8.125Z" fill="#351D16"/>
</svg>
