<svg width="50" height="50" viewBox="0 0 50 50" fill="none" xmlns="http://www.w3.org/2000/svg">
<path d="M27.8125 10.9582L30.4583 16.3541C30.6828 16.8083 31.0144 17.2012 31.4245 17.4988C31.8347 17.7964 32.311 17.9898 32.8125 18.0624L38.75 18.9166C39.3274 19.0004 39.8699 19.2442 40.3159 19.6205C40.7619 19.9967 41.0937 20.4903 41.2736 21.0453C41.4536 21.6004 41.4745 22.1947 41.3341 22.7611C41.1937 23.3274 40.8976 23.8432 40.4792 24.2499L36.1875 28.4166C35.8132 28.7762 35.535 29.2241 35.3785 29.7191C35.222 30.214 35.1922 30.7404 35.2917 31.2499L36.2917 37.1666C36.3879 37.7393 36.3226 38.3275 36.1031 38.8651C35.8837 39.4028 35.5187 39.8687 35.0493 40.2106C34.5798 40.5524 34.0243 40.7566 33.4453 40.8004C32.8662 40.8441 32.2863 40.7256 31.7708 40.4582L26.4583 37.6249C26.0083 37.3894 25.5079 37.2664 25 37.2664C24.4921 37.2664 23.9917 37.3894 23.5417 37.6249L18.2292 40.4166C17.7137 40.684 17.1338 40.8025 16.5548 40.7587C15.9757 40.715 15.4202 40.5107 14.9507 40.1689C14.4813 39.8271 14.1163 39.3612 13.8969 38.8235C13.6774 38.2858 13.6121 37.6976 13.7083 37.1249L14.7083 31.2499C14.797 30.75 14.7617 30.236 14.6055 29.7529C14.4493 29.2698 14.177 28.8324 13.8125 28.4791L9.52084 24.3124C9.08364 23.9085 8.77087 23.3882 8.61934 22.8126C8.4678 22.237 8.48379 21.6301 8.66543 21.0633C8.84707 20.4965 9.18681 19.9933 9.64467 19.613C10.1025 19.2327 10.6595 18.9911 11.25 18.9166L17.1875 18.0624C17.689 17.9898 18.1653 17.7964 18.5755 17.4988C18.9856 17.2012 19.3172 16.8083 19.5417 16.3541L22.1875 10.9582C22.449 10.4363 22.8506 9.99748 23.3473 9.69079C23.844 9.38411 24.4162 9.22168 25 9.22168C25.5838 9.22168 26.156 9.38411 26.6527 9.69079C27.1494 9.99748 27.551 10.4363 27.8125 10.9582Z" fill="#351D16"/>
</svg>
